HIERARCHY
ROOT Hips
{
	OFFSET -0.001795 -0.223333 0.028219
	CHANNELS 6 Xposition Yposition Zposition Zrotation Yrotation Xrotation 
	JOINT LeftUpLeg
	{
		OFFSET 0.069520 -0.091406 -0.006815
		CHANNELS 3 Zrotation Yrotation Xrotation
		JOINT LeftLeg
		{
			OFFSET 0.034277 -0.375199 -0.004496
			CHANNELS 3 Zrotation Yrotation Xrotation
			JOINT LeftFoot
			{
				OFFSET -0.013596 -0.397961 -0.043693
				CHANNELS 3 Zrotation Yrotation Xrotation
				JOINT LeftToe
				{
					OFFSET 0.026358 -0.055791 0.119288
					CHANNELS 3 Zrotation Yrotation Xrotation
					End Site
					{
						OFFSET 0.000000 0.000000 0.000000
					}
				}
			}
		}
	}
	JOINT RightUpLeg
	{
		OFFSET -0.067670 -0.090522 -0.004320
		CHANNELS 3 Zrotation Yrotation Xrotation
		JOINT RightLeg
		{
			OFFSET -0.038290 -0.382569 -0.008850
			CHANNELS 3 Zrotation Yrotation Xrotation
			JOINT RightFoot
			{
				OFFSET 0.015774 -0.398415 -0.042312
				CHANNELS 3 Zrotation Yrotation Xrotation
				JOINT RightToe
				{
					OFFSET -0.025372 -0.048144 0.123348
					CHANNELS 3 Zrotation Yrotation Xrotation
					End Site
					{
						OFFSET 0.000000 0.000000 0.000000
					}
				}
			}
		}
	}
	JOINT Spine
	{
		OFFSET -0.002533 0.108963 -0.026696
		CHANNELS 3 Zrotation Yrotation Xrotation
		JOINT Spine1
		{
			OFFSET 0.005487 0.135180 0.001092
			CHANNELS 3 Zrotation Yrotation Xrotation
			JOINT Spine2
			{
				OFFSET 0.001457 0.052922 0.025425
				CHANNELS 3 Zrotation Yrotation Xrotation
				JOINT Neck
				{
					OFFSET -0.002778 0.213870 -0.042857
					CHANNELS 3 Zrotation Yrotation Xrotation
					JOINT Head
					{
						OFFSET 0.005152 0.064970 0.051349
						CHANNELS 3 Zrotation Yrotation Xrotation
						End Site
						{
							OFFSET 0.000000 0.000000 0.000000
						}
					}
				}
				JOINT LeftShoulder
				{
					OFFSET 0.078845 0.121749 -0.034090
					CHANNELS 3 Zrotation Yrotation Xrotation
					JOINT LeftArm
					{
						OFFSET 0.090977 0.030469 -0.008868
						CHANNELS 3 Zrotation Yrotation Xrotation
						JOINT LeftForeArm
						{
							OFFSET 0.259612 -0.012772 -0.027456
							CHANNELS 3 Zrotation Yrotation Xrotation
							JOINT LeftHand
							{
								OFFSET 0.249234 0.008986 -0.001171
								CHANNELS 3 Zrotation Yrotation Xrotation
								End Site
								{
									OFFSET 0.000000 0.000000 0.000000
								}
							}
						}
					}
				}
				JOINT RightShoulder
				{
					OFFSET -0.081759 0.118833 -0.038615
					CHANNELS 3 Zrotation Yrotation Xrotation
					JOINT RightArm
					{
						OFFSET -0.096012 0.032551 -0.009143
						CHANNELS 3 Zrotation Yrotation Xrotation
						JOINT RightForeArm
						{
							OFFSET -0.253742 -0.013329 -0.021401
							CHANNELS 3 Zrotation Yrotation Xrotation
							JOINT RightHand
							{
								OFFSET -0.255298 0.007772 -0.005559
								CHANNELS 3 Zrotation Yrotation Xrotation
								End Site
								{
									OFFSET 0.000000 0.000000 0.000000
								}
							}
						}
					}
				}
			}
		}
	}
}
MOTION
Frames: 11
Frame Time: 0.050000
0.000000 0.935618 0.000000 -5.110271 -18.529760 2.554535 -3.309560 -0.686728 -5.556128 -21.370887 3.069146 -5.844245 -3.052483 4.176747 35.918023 0.000000 0.000000 0.000000 -2.458834 1.683912 -16.168753 13.137381 -0.898342 39.056665 -4.260122 -11.043396 1.110284 0.000000 0.000000 0.000000 0.122202 -0.269835 9.112010 -3.719066 1.823391 0.249528 2.838081 -2.899212 9.623136 -1.295768 0.536953 -16.451654 0.000000 0.000000 0.000000 -31.715903 -7.037712 7.593687 -43.122451 -16.585483 -1.584232 -0.999778 -25.354496 1.646219 0.000000 0.000000 0.000000 24.278575 10.336780 -0.762803 51.745902 -3.473904 -5.555258 -1.492001 19.276450 0.005643 0.000000 0.000000 0.000000 
-0.011535 0.937589 0.003029 -5.798737 -13.081922 1.973309 -0.759614 -0.529440 -5.433763 -23.339965 3.430311 -2.554205 -5.444869 2.421434 35.464651 0.000000 0.000000 0.000000 -3.553243 1.800278 -18.897359 10.513532 -0.917131 37.960842 -3.171874 -9.378068 3.214015 0.000000 0.000000 0.000000 0.830176 -0.396367 9.887030 -1.142463 0.615792 1.877522 0.725233 -3.240467 9.903480 -0.501439 0.389557 -17.690939 0.000000 0.000000 0.000000 -29.042384 -8.747592 7.187194 -45.341299 -16.999095 -0.905131 -0.521313 -26.569299 1.598242 0.000000 0.000000 0.000000 23.498250 10.278656 0.463130 53.225536 0.620330 -4.439338 -0.081669 19.086103 0.337114 0.000000 0.000000 0.000000 
-0.023898 0.939385 0.005537 -5.519448 -8.006994 1.376120 -0.498481 -0.521136 -5.492695 -22.958639 3.356232 0.311984 -7.378789 0.886573 34.777591 0.000000 0.000000 0.000000 -4.564272 1.639684 -20.147295 6.252157 -0.148631 33.593366 -1.698652 -5.607215 2.632480 0.000000 0.000000 0.000000 1.666071 -0.561369 10.955725 -2.073588 1.063549 2.777943 2.475795 -2.817738 9.132287 -1.558589 1.351322 -17.894132 0.000000 0.000000 0.000000 -29.845547 -11.384740 7.876214 -45.672716 -16.781253 -0.592975 0.949216 -25.686537 1.084027 0.000000 0.000000 0.000000 20.601550 10.511382 1.859093 56.598461 2.619829 -4.273101 -1.210552 19.724291 0.262621 0.000000 0.000000 0.000000 
-0.037264 0.939116 0.007895 -5.736653 -2.889953 2.473063 1.407323 -0.589556 -7.356674 -24.182005 3.468535 2.859732 -9.395207 -0.676127 34.521473 0.000000 0.000000 0.000000 -5.844655 1.423446 -22.410426 1.759256 0.735336 27.632143 2.344313 3.567182 3.802373 0.000000 0.000000 0.000000 1.927215 -0.709430 11.990132 -1.215290 0.570049 2.362424 2.156617 -1.862386 8.827663 -1.575126 1.784183 -18.664741 0.000000 0.000000 0.000000 -29.999493 -12.468235 7.111478 -45.462344 -15.849165 -0.460654 -2.499019 -26.559392 1.794082 0.000000 0.000000 0.000000 21.877394 11.745967 3.659667 55.659498 6.097660 -2.743719 -0.931399 19.608069 0.429231 0.000000 0.000000 0.000000 
-0.052858 0.938952 0.009972 -5.278975 2.076139 2.956665 2.484520 -0.704017 -9.327297 -24.869196 3.642710 6.289050 -11.261457 -2.093840 34.465220 0.000000 0.000000 0.000000 -6.845633 1.031761 -23.364552 -2.627557 1.580127 22.173382 4.635243 7.418344 6.606880 0.000000 0.000000 0.000000 2.603053 -0.974454 13.570275 -2.049765 0.958875 0.711398 2.104411 -0.547899 9.713132 0.170372 1.275080 -20.060498 0.000000 0.000000 0.000000 -30.238504 -13.777423 6.411786 -44.806661 -15.100762 -0.333918 -3.222278 -26.447812 1.822087 0.000000 0.000000 0.000000 25.682138 11.602838 5.067769 52.065033 10.353722 -1.186428 -1.480538 19.370321 0.460174 0.000000 0.000000 0.000000 
-0.070997 0.937673 0.012251 -4.695929 8.279598 3.009964 3.421219 -0.864393 -11.496425 -25.193538 3.750434 10.849098 -13.534316 -3.837466 34.526436 0.000000 0.000000 0.000000 -8.612467 0.266380 -24.762129 -1.689526 0.917936 21.443068 1.035015 -2.117013 12.824506 0.000000 0.000000 0.000000 3.050920 -1.349999 15.726980 -2.095019 0.947564 0.743432 2.043569 0.251757 9.671535 0.913538 1.419409 -21.355552 0.000000 0.000000 0.000000 -31.534460 -15.342378 5.732795 -42.577667 -14.395282 -0.030286 -4.923107 -25.200827 1.958682 0.000000 0.000000 0.000000 26.508254 13.803368 8.147084 50.474233 15.525510 0.484255 -3.509476 20.187338 0.261263 0.000000 0.000000 0.000000 
-0.091954 0.935192 0.015456 -4.016153 13.983495 4.881957 4.184689 -1.163589 -14.678379 -25.140183 3.458159 13.568648 -15.426120 -5.566029 34.185930 0.000000 0.000000 0.000000 -9.527257 -0.495993 -27.249906 -3.752349 1.262748 22.194391 -0.980202 -6.829504 22.423297 0.000000 0.000000 0.000000 3.362283 -1.500104 15.238083 -1.237091 0.288827 3.656283 1.430931 2.900950 6.821881 1.264916 1.808114 -20.935028 0.000000 0.000000 0.000000 -30.023971 -16.436819 3.928526 -43.685678 -12.129121 0.166964 -6.066898 -25.412396 1.983028 0.000000 0.000000 0.000000 25.630907 15.828851 11.340580 48.505994 19.985099 1.913542 -4.807174 21.347839 0.132739 0.000000 0.000000 0.000000 
-0.116247 0.930846 0.021017 -2.752443 19.723053 6.408522 4.162784 -1.627039 -17.997041 -24.376927 3.122887 17.433026 -17.265470 -7.507059 33.598311 0.000000 0.000000 0.000000 -10.824371 -1.542371 -28.228658 -6.669831 1.859352 22.931080 -1.115620 -7.515804 32.007610 0.000000 0.000000 0.000000 3.803017 -1.909943 16.642669 -1.986012 0.592200 3.070724 1.996555 5.348379 7.424685 2.769347 1.731003 -22.070526 0.000000 0.000000 0.000000 -30.985897 -17.120705 1.871076 -42.747801 -10.966071 0.553291 -5.718998 -23.626258 1.590375 0.000000 0.000000 0.000000 25.821365 17.560316 14.626229 43.733994 25.390002 2.804391 -7.018414 21.136308 -0.210526 0.000000 0.000000 0.000000 
-0.144271 0.922263 0.029858 -1.388368 25.607423 7.688992 4.387400 -2.182275 -21.143561 -23.735805 2.675419 21.663074 -19.061367 -10.052214 32.392008 0.000000 0.000000 0.000000 -10.519583 -2.064258 -27.858437 -9.481857 2.344250 24.120004 -6.699563 -13.888527 39.081258 0.000000 0.000000 0.000000 4.179573 -2.366499 17.876091 -1.161942 -0.093599 4.434719 1.092752 7.820822 5.465739 6.013671 0.480907 -21.441663 0.000000 0.000000 0.000000 -30.443443 -18.572004 0.440372 -42.697923 -8.026027 0.402292 -2.502451 -21.706662 0.689198 0.000000 0.000000 0.000000 24.475861 20.719994 18.071913 39.788920 29.706765 3.646173 -10.554151 19.329214 -0.778634 0.000000 0.000000 0.000000 
-0.174693 0.913580 0.040746 0.545759 31.297458 8.647902 4.771922 -2.786520 -23.787146 -23.847415 2.153695 25.825767 -20.738176 -12.339343 31.913490 0.000000 0.000000 0.000000 -11.046380 -2.870770 -27.305433 -11.090391 2.321614 27.332528 -5.078590 -10.810371 35.411506 0.000000 0.000000 0.000000 4.528671 -3.078775 20.160387 -1.346157 -0.294109 5.335302 1.090751 10.557029 4.203574 7.437108 0.479617 -22.573587 0.000000 0.000000 0.000000 -31.256398 -20.055109 -1.092461 -40.903998 -4.713064 0.204497 -0.591485 -21.177638 0.180488 0.000000 0.000000 0.000000 24.857364 22.591104 21.220644 33.029792 33.084741 3.131094 -13.149702 15.744491 -0.997401 0.000000 0.000000 0.000000 
-0.205109 0.906279 0.052849 1.703598 36.296003 9.622573 5.664813 -3.459172 -26.577310 -23.326013 1.451857 29.374231 -22.071048 -14.661106 31.243785 0.000000 0.000000 0.000000 -10.609660 -3.458818 -27.807072 -12.385728 2.017742 31.408996 -3.309499 -7.592358 31.003227 0.000000 0.000000 0.000000 5.383822 -4.083302 22.476879 -2.169632 -0.073545 5.530945 2.119215 12.960439 3.454999 8.365356 0.523585 -23.021461 0.000000 0.000000 0.000000 -32.411144 -21.821785 -2.175115 -39.803888 -1.097948 -0.153593 1.333731 -22.063909 -0.336058 0.000000 0.000000 0.000000 23.774648 24.941155 23.606346 26.504231 35.950059 2.520313 -14.374760 12.854372 -0.981535 0.000000 0.000000 0.000000 
